ffmpeg version 8.0.1 Copyright (c) 2000-2025 the FFmpeg developers
  built with Apple clang version 17.0.0 (clang-1700.4.4.1)
  configuration: --prefix=/opt/homebrew/Cellar/ffmpeg/8.0.1 --enable-shared --enable-pthreads --enable-version3 --cc=clang --host-cflags= --host-ldflags= --enable-ffplay --enable-gnutls --enable-gpl --enable-libaom --enable-libaribb24 --enable-libbluray --enable-libdav1d --enable-libharfbuzz --enable-libjxl --enable-libmp3lame --enable-libopus --enable-librav1e --enable-librist --enable-librubberband --enable-libsnappy --enable-libsrt --enable-libssh --enable-libsvtav1 --enable-libtesseract --enable-libtheora --enable-libvidstab --enable-libvmaf --enable-libvorbis --enable-libvpx --enable-libwebp --enable-libx264 --enable-libx265 --enable-libxml2 --enable-libxvid --enable-lzma --enable-libfontconfig --enable-libfreetype --enable-frei0r --enable-libass --enable-libopencore-amrnb --enable-libopencore-amrwb --enable-libopenjpeg --enable-libspeex --enable-libsoxr --enable-libzmq --enable-libzimg --disable-libjack --disable-indev=jack --enable-videotoolbox --enable-audiotoolbox --enable-neon
  libavutil      60.  8.100 / 60.  8.100
  libavcodec     62. 11.100 / 62. 11.100
  libavformat    62.  3.100 / 62.  3.100
  libavdevice    62.  1.100 / 62.  1.100
  libavfilter    11.  4.100 / 11.  4.100
  libswscale      9.  1.100 /  9.  1.100
  libswresample   6.  1.100 /  6.  1.100
Input #0, mov,mp4,m4a,3gp,3g2,mj2, from 'backend/jobs/c9730142-6501-41ac-bd2c-3d9ecd3a5820/B-roll_1.mp4':
  Metadata:
    major_brand     : isom
    minor_version   : 512
    compatible_brands: isomiso2avc1mp41
    encoder         : Lavf58.76.100
  Duration: 00:00:05.88, start: 0.000000, bitrate: 632 kb/s
  Stream #0:0[0x1](und): Video: h264 (High) (avc1 / 0x31637661), yuv420p(progressive), 768x1152, 628 kb/s, 24 fps, 24 tbr, 12288 tbn (default)
    Metadata:
      handler_name    : VideoHandler
      vendor_id       : [0][0][0][0]
Input #1, png_pipe, from '/Users/dynamodevesh/Desktop/Buttercutai/files/Overlay assets _/Image_Overlay.png':
  Duration: N/A, bitrate: N/A
  Stream #1:0: Video: png, rgb24(pc, gbr/unknown/unknown), 1024x1024, 25 fps, 25 tbr, 25 tbn
Stream mapping:
  Stream #0:0 (h264) -> overlay
  Stream #1:0 (png) -> scale:default
  overlay:default -> Stream #0:0 (libx264)
Press [q] to stop, [?] for help
[libx264 @ 0x835065180] using cpu capabilities: ARMv8 NEON DotProd
[libx264 @ 0x835065180] profile High, level 3.1, 4:2:0, 8-bit
[libx264 @ 0x835065180] 264 - core 165 r3222 b35605a - H.264/MPEG-4 AVC codec - Copyleft 2003-2025 - http://www.videolan.org/x264.html - options: cabac=1 ref=2 deblock=1:0:0 analyse=0x3:0x113 me=hex subme=6 psy=1 psy_rd=1.00:0.00 mixed_ref=1 me_range=16 chroma_me=1 trellis=1 8x8dct=1 cqm=0 deadzone=21,11 fast_pskip=1 chroma_qp_offset=-2 threads=12 lookahead_threads=2 sliced_threads=0 nr=0 decimate=1 interlaced=0 bluray_compat=0 constrained_intra=0 bframes=3 b_pyramid=2 b_adapt=1 b_bias=0 direct=1 weightb=1 open_gop=0 weightp=1 keyint=250 keyint_min=24 scenecut=40 intra_refresh=0 rc_lookahead=30 rc=crf mbtree=1 crf=23.0 qcomp=0.60 qpmin=0 qpmax=69 qpstep=4 ip_ratio=1.40 aq=1:1.00
Output #0, mp4, to 'backend/jobs/c9730142-6501-41ac-bd2c-3d9ecd3a5820/rendered.mp4':
  Metadata:
    major_brand     : isom
    minor_version   : 512
    compatible_brands: isomiso2avc1mp41
    encoder         : Lavf62.3.100
  Stream #0:0: Video: h264 (avc1 / 0x31637661), yuv420p(tv, progressive), 768x1152, q=2-31, 24 fps, 12288 tbn
    Metadata:
      encoder         : Lavc62.11.100 libx264
    Side data:
      cpb: bitrate max/min/avg: 0/0/0 buffer size: 0 vbv_delay: N/A
frame=  115 fps=0.0 q=28.0 size=     256KiB time=00:00:04.70 bitrate= 445.5kbits/s speed=9.32x elapsed=0:00:00.50    [out#0/mp4 @ 0x834c08840] video:412KiB audio:0KiB subtitle:0KiB other streams:0KiB global headers:0KiB muxing overhead: 0.604740%
frame=  141 fps=0.0 q=-1.0 Lsize=     414KiB time=00:00:05.79 bitrate= 586.2kbits/s speed=10.4x elapsed=0:00:00.55    
[libx264 @ 0x835065180] frame I:1     Avg QP:16.50  size: 35129
[libx264 @ 0x835065180] frame P:35    Avg QP:18.28  size:  7177
[libx264 @ 0x835065180] frame B:105   Avg QP:20.93  size:  1284
[libx264 @ 0x835065180] consecutive B-frames:  0.7%  0.0%  0.0% 99.3%
[libx264 @ 0x835065180] mb I  I16..4: 48.5% 35.6% 15.8%
[libx264 @ 0x835065180] mb P  I16..4:  4.4%  8.7%  0.4%  P16..4: 23.4%  5.5%  2.3%  0.0%  0.0%    skip:55.4%
[libx264 @ 0x835065180] mb B  I16..4:  0.9%  0.2%  0.0%  B16..8: 11.3%  1.4%  0.0%  direct: 2.6%  skip:83.5%  L0:38.7% L1:54.5% BI: 6.8%
[libx264 @ 0x835065180] 8x8 transform intra:52.1% inter:63.7%
[libx264 @ 0x835065180] coded y,uvDC,uvAC intra: 10.1% 41.8% 8.4% inter: 2.0% 7.2% 0.2%
[libx264 @ 0x835065180] i16 v,h,dc,p: 54% 29%  8%  9%
[libx264 @ 0x835065180] i8 v,h,dc,ddl,ddr,vr,hd,vl,hu: 25% 15% 55%  1%  1%  1%  1%  1%  0%
[libx264 @ 0x835065180] i4 v,h,dc,ddl,ddr,vr,hd,vl,hu: 45% 18% 17%  3%  4%  4%  4%  3%  3%
[libx264 @ 0x835065180] i8c dc,h,v,p: 51% 18% 26%  5%
[libx264 @ 0x835065180] Weighted P-Frames: Y:0.0% UV:0.0%
[libx264 @ 0x835065180] ref P L0: 70.4% 29.6%
[libx264 @ 0x835065180] ref B L0: 81.1% 18.9%
[libx264 @ 0x835065180] ref B L1: 92.6%  7.4%
[libx264 @ 0x835065180] kb/s:573.47
